<svg xmlns="http://www.w3.org/2000/svg" width="280" height="200" viewBox="0 0 280 200"
     preserveAspectRatio="xMidYMid meet">
    <defs>
        <clipPath id="animationMask_Tbn1Ciqw1g">
            <rect width="280" height="200" x="0" y="0"/>
        </clipPath>
    </defs>
    <g clip-path="url(#animationMask_Tbn1Ciqw1g)">
        <g transform="matrix(1,0,0,1,133.25,95.75)" opacity="1" style="user-select: none; display: block;">
            <g opacity="1" transform="matrix(1,0,0,1,0,0)">
                <path stroke-linecap="round" stroke-linejoin="miter" fill-opacity="0" stroke-miterlimit="4"
                      stroke="rgb(200,200,200)" stroke-opacity="1" stroke-width="1"
                      d="M0 0 M26.314,46.592 C18.544,50.99 9.565,53.5 0,53.5 C-29.547,53.5 -53.5,29.547 -53.5,0 C-53.5,-29.547 -29.547,-53.5 0,-53.5 C29.547,-53.5 53.5,-29.547 53.5,0 C53.5,15.157 47.196,28.843 37.068,38.577"
                      style="display: block;"/>
            </g>
        </g>
        <g transform="matrix(1,0,0,1,133.25,95.75)" opacity="1" style="user-select: none;">
            <g opacity="1" transform="matrix(1,0,0,1,0,0)">
                <path stroke-linecap="round" stroke-linejoin="miter" fill-opacity="0" stroke-miterlimit="4"
                      stroke="rgb(200,200,200)" stroke-opacity="1" stroke-width="1"
                      d="M0 0 M0,-60.5 C9.21,-60.5 17.943,-58.437 25.76,-54.749"/>
            </g>
            <g opacity="1" transform="matrix(1,0,0,1,0,0)">
                <path stroke-linecap="round" stroke-linejoin="miter" fill-opacity="0" stroke-miterlimit="4"
                      stroke="rgb(200,200,200)" stroke-opacity="1" stroke-width="1"
                      d="M0 0 M32.414,-51.081 C35.63,-49.034 38.64,-46.693 41.406,-44.094"/>
            </g>
            <g opacity="1" transform="matrix(1,0,0,1,0,0)">
                <path stroke-linecap="round" stroke-linejoin="miter" fill-opacity="0" stroke-miterlimit="4"
                      stroke="rgb(200,200,200)" stroke-opacity="1" stroke-width="1"
                      d="M0 0 M44.094,-41.406 C47.555,-37.722 50.561,-33.605 53.02,-29.145"/>
            </g>
            <g opacity="1" transform="matrix(1,0,0,1,0,0)">
                <path stroke-linecap="round" stroke-linejoin="miter" fill-opacity="0" stroke-miterlimit="4"
                      stroke="rgb(200,200,200)" stroke-opacity="1" stroke-width="1"
                      d="M0 0 M54.749,-25.76 C55.288,-24.617 55.793,-23.454 56.261,-22.273"/>
            </g>
            <g opacity="1" transform="matrix(1,0,0,1,0,0)">
                <path stroke-linecap="round" stroke-linejoin="miter" fill-opacity="0" stroke-miterlimit="4"
                      stroke="rgb(200,200,200)" stroke-opacity="1" stroke-width="1"
                      d="M0 0 M59.437,-11.338 C60.135,-7.665 60.5,-3.875 60.5,0 C60.5,13.283 56.21,25.572 48.941,35.555"/>
            </g>
            <g opacity="1" transform="matrix(1,0,0,1,0,0)">
                <path stroke-linecap="round" stroke-linejoin="miter" fill-opacity="0" stroke-miterlimit="4"
                      stroke="rgb(200,200,200)" stroke-opacity="1" stroke-width="1"
                      d="M0 0 M46.609,38.557 C44.991,40.509 43.253,42.359 41.406,44.094"/>
            </g>
            <g opacity="1" transform="matrix(1,0,0,1,0,0)">
                <path stroke-linecap="round" stroke-linejoin="miter" fill-opacity="0" stroke-miterlimit="4"
                      stroke="rgb(200,200,200)" stroke-opacity="1" stroke-width="1"
                      d="M0 0 M29.145,53.02 C26.935,54.238 24.641,55.322 22.273,56.261"/>
            </g>
            <g opacity="1" transform="matrix(1,0,0,1,0,0)">
                <path stroke-linecap="round" stroke-linejoin="miter" fill-opacity="0" stroke-miterlimit="4"
                      stroke="rgb(200,200,200)" stroke-opacity="1" stroke-width="1"
                      d="M0 0 M15.048,58.61 C10.236,59.844 5.194,60.5 0,60.5 C-7.863,60.5 -15.379,58.996 -22.273,56.261"/>
            </g>
            <g opacity="1" transform="matrix(1,0,0,1,0,0)">
                <path stroke-linecap="round" stroke-linejoin="miter" fill-opacity="0" stroke-miterlimit="4"
                      stroke="rgb(200,200,200)" stroke-opacity="1" stroke-width="1"
                      d="M0 0 M-27.466,53.911 C-28.031,53.622 -28.591,53.325 -29.145,53.02"/>
            </g>
            <g opacity="1" transform="matrix(1,0,0,1,0,0)">
                <path stroke-linecap="round" stroke-linejoin="miter" fill-opacity="0" stroke-miterlimit="4"
                      stroke="rgb(200,200,200)" stroke-opacity="1" stroke-width="1"
                      d="M0 0 M-34.001,50.036 C-39.775,46.103 -44.833,41.197 -48.941,35.555"/>
            </g>
            <g opacity="1" transform="matrix(1,0,0,1,0,0)">
                <path stroke-linecap="round" stroke-linejoin="miter" fill-opacity="0" stroke-miterlimit="4"
                      stroke="rgb(200,200,200)" stroke-opacity="1" stroke-width="1"
                      d="M0 0 M-53.02,29.145 C-57.787,20.498 -60.5,10.563 -60.5,0 C-60.5,-1.276 -60.46,-2.543 -60.382,-3.799"/>
            </g>
            <g opacity="1" transform="matrix(1,0,0,1,0,0)">
                <path stroke-linecap="round" stroke-linejoin="miter" fill-opacity="0" stroke-miterlimit="4"
                      stroke="rgb(200,200,200)" stroke-opacity="1" stroke-width="1"
                      d="M0 0 M-59.762,-9.465 C-59.564,-10.723 -59.328,-11.968 -59.053,-13.199"/>
            </g>
            <g opacity="1" transform="matrix(1,0,0,1,0,0)">
                <path stroke-linecap="round" stroke-linejoin="miter" fill-opacity="0" stroke-miterlimit="4"
                      stroke="rgb(200,200,200)" stroke-opacity="1" stroke-width="1"
                      d="M0 0 M-59.053,-13.199 C-57.651,-19.489 -55.269,-25.41 -52.076,-30.795"/>
            </g>
            <g opacity="1" transform="matrix(1,0,0,1,0,0)">
                <path stroke-linecap="round" stroke-linejoin="miter" fill-opacity="0" stroke-miterlimit="4"
                      stroke="rgb(200,200,200)" stroke-opacity="1" stroke-width="1"
                      d="M0 0 M-48.941,-35.555 C-47.074,-38.12 -45.01,-40.533 -42.771,-42.771"/>
            </g>
            <g opacity="1" transform="matrix(1,0,0,1,0,0)">
                <path stroke-linecap="round" stroke-linejoin="miter" fill-opacity="0" stroke-miterlimit="4"
                      stroke="rgb(200,200,200)" stroke-opacity="1" stroke-width="1"
                      d="M0 0 M-41.406,-44.094 C-39.561,-45.828 -37.607,-47.447 -35.555,-48.941"/>
            </g>
            <g opacity="1" transform="matrix(1,0,0,1,0,0)">
                <path stroke-linecap="round" stroke-linejoin="miter" fill-opacity="0" stroke-miterlimit="4"
                      stroke="rgb(200,200,200)" stroke-opacity="1" stroke-width="1"
                      d="M0 0 M-25.76,-54.749 C-21.232,-56.886 -16.396,-58.477 -11.338,-59.437"/>
            </g>
        </g>
        <g transform="matrix(1,0,0,1,140,100)" opacity="1" style="user-select: none; display: block;">
            <g opacity="1" transform="matrix(1,0,0,1,-6.5,-5.453)">
                <path stroke-linecap="round" stroke-linejoin="miter" fill-opacity="0" stroke-miterlimit="4"
                      stroke="rgb(153,153,153)" stroke-opacity="1" stroke-width="1"
                      d="M0 0 M-1.33,32.047 C-11.869,32.047 -22,32.047 -22,32.047 C-24.209,32.047 -26,30.256 -26,28.047 C-26,28.047 -26,-28.047 -26,-28.047 C-26,-30.256 -24.209,-32.047 -22,-32.047 C-22,-32.047 22,-32.047 22,-32.047 C24.209,-32.047 26,-30.256 26,-28.047 C26,-28.047 26,-14.633 26,-0.924"
                      style="display: block;"/>
            </g>
            <g opacity="1" transform="matrix(1,0,0,1,0,0)">
                <path stroke-linecap="round" stroke-linejoin="miter" fill-opacity="0" stroke-miterlimit="4"
                      stroke="rgb(153,153,153)" stroke-opacity="1" stroke-width="1"
                      d="M0 0 M-23.063,-26.516 C-23.063,-26.516 9,-26.516 9,-26.516" style="display: block;"/>
            </g>
            <g opacity="1" transform="matrix(1,0,0,1,0,0)">
                <path stroke-linecap="round" stroke-linejoin="miter" fill-opacity="0" stroke-miterlimit="4"
                      stroke="rgb(153,153,153)" stroke-opacity="1" stroke-width="1"
                      d="M0 0 M-23.125,-20.516 C-23.125,-20.516 8.938,-20.516 8.938,-20.516"
                      style="display: block;"/>
            </g>
            <g opacity="1" transform="matrix(1,0,0,1,0,0)">
                <path stroke-linecap="round" stroke-linejoin="miter" fill-opacity="0" stroke-miterlimit="4"
                      stroke="rgb(153,153,153)" stroke-opacity="1" stroke-width="1"
                      d="M0 0 M-23.063,-14.516 C-23.063,-14.516 8.938,-14.516 8.938,-14.516"
                      style="display: block;"/>
            </g>
            <g opacity="1" transform="matrix(1,0,0,1,0,0)">
                <path stroke-linecap="round" stroke-linejoin="miter" fill-opacity="0" stroke-miterlimit="4"
                      stroke="rgb(153,153,153)" stroke-opacity="1" stroke-width="1"
                      d="M0 0 M-23.063,-8.516 C-23.063,-8.516 8.938,-8.516 8.938,-8.516" style="display: block;"/>
            </g>
            <g opacity="1" transform="matrix(1,0,0,1,0,0)">
                <path stroke-linecap="round" stroke-linejoin="miter" fill-opacity="0" stroke-miterlimit="4"
                      stroke="rgb(153,153,153)" stroke-opacity="1" stroke-width="1"
                      d="M0 0 M-23.125,-3.031 C-23.125,-3.031 -10.417,-3.031 -1.001,-3.031"
                      style="display: block;"/>
            </g>
            <g opacity="1" transform="matrix(1,0,0,1,0,0)">
                <path stroke-linecap="round" stroke-linejoin="miter" fill-opacity="0" stroke-miterlimit="4"
                      stroke="rgb(153,153,153)" stroke-opacity="1" stroke-width="1"
                      d="M0 0 M-23.063,2.969 C-23.063,2.969 -15.063,2.969 -7.062,2.969" style="display: block;"/>
            </g>
            <g opacity="1" transform="matrix(1,0,0,1,0,0)">
                <path stroke-linecap="round" stroke-linejoin="miter" fill-opacity="0" stroke-miterlimit="4"
                      stroke="rgb(153,153,153)" stroke-opacity="1" stroke-width="1"
                      d="M0 0 M-23.125,8.484 C-23.125,8.484 -16.734,8.484 -9.659,8.484" style="display: block;"/>
            </g>
            <g opacity="1" transform="matrix(1,0,0,1,0,0)">
                <path stroke-linecap="round" stroke-linejoin="miter" fill-opacity="0" stroke-miterlimit="4"
                      stroke="rgb(153,153,153)" stroke-opacity="1" stroke-width="1"
                      d="M0 0 M-23.063,14.5 C-23.063,14.5 -17.437,14.5 -10.903,14.5" style="display: block;"/>
            </g>
        </g>
        <g transform="matrix(1,0,0,1,141,99.375)" opacity="1" style="user-select: none;">
            <g opacity="1" transform="matrix(1,0,0,1,9,14.516)">
                <path fill="rgb(255,255,255)" fill-opacity="1"
                      d="M0 0 M0,-20 C11.037999999999998,-20 20,-11.037999999999998 20,0 C20,11.037999999999998 11.037999999999998,20 0,20 C-11.037999999999998,20 -20,11.037999999999998 -20,0 C-20,-11.037999999999998 -11.037999999999998,-20 0,-20z"/>
            </g>
        </g>
        <g style="user-select: none; display: block;" transform="matrix(1,0,0,1,140,100)" opacity="1">
            <g opacity="1" transform="matrix(1,0,0,1,0,0)">
                <path stroke-linecap="butt" stroke-linejoin="miter" fill-opacity="0" stroke-miterlimit="4"
                      style="display: block;" stroke="rgb(153,153,153)" stroke-opacity="1" stroke-width="1"
                      d="M0 0 M17.063,29.5 C17.063,29.5 19.281,32.688 19.281,32.688M0 0 M19.875,27.75 C19.875,27.75 22.063,30.75 22.063,30.75"/>
            </g>
            <g opacity="1" transform="matrix(1,0,0,1,0,0)">
                <path style="display: block;" fill="rgb(255,255,255)" fill-opacity="1"
                      d="M0 0 M23.125,30.063 C23.125,30.063 18.125,33.75 18.125,33.75 C18.125,33.75 28.938,49.125 28.938,49.125 C28.938,49.125 33.992,45.414 33.992,45.414 C33.992,45.414 23.125,30.063 23.125,30.063z"/>
                <path stroke-linecap="butt" stroke-linejoin="miter" fill-opacity="0" stroke-miterlimit="4"
                      style="display: block;" stroke="rgb(153,153,153)" stroke-opacity="1" stroke-width="1"
                      d="M0 0 M23.125,30.063 C23.125,30.063 18.125,33.75 18.125,33.75 C18.125,33.75 28.938,49.125 28.938,49.125 C28.938,49.125 33.992,45.414 33.992,45.414 C33.992,45.414 23.125,30.063 23.125,30.063z"/>
            </g>
        </g>
        <g transform="matrix(1,0,0,1,141,99.375)" opacity="1" style="user-select: none;">
            <g opacity="1" transform="matrix(1,0,0,1,9,14.516)">
                <path fill="rgb(255,255,255)" fill-opacity="1"
                      d="M0 0 M0,-17 C9.382299999999999,-17 17,-9.382299999999999 17,0 C17,9.382299999999999 9.382299999999999,17 0,17 C-9.382299999999999,17 -17,9.382299999999999 -17,0 C-17,-9.382299999999999 -9.382299999999999,-17 0,-17z"/>
                <path stroke-linecap="butt" stroke-linejoin="miter" fill-opacity="0" stroke-miterlimit="4"
                      stroke="rgb(153,153,153)" stroke-opacity="1" stroke-width="1"
                      d="M0 0 M0,-17 C9.382299999999999,-17 17,-9.382299999999999 17,0 C17,9.382299999999999 9.382299999999999,17 0,17 C-9.382299999999999,17 -17,9.382299999999999 -17,0 C-17,-9.382299999999999 -9.382299999999999,-17 0,-17z"/>
            </g>
            <g opacity="1" transform="matrix(1,0,0,1,9,14.516)">
                <path stroke-linecap="butt" stroke-linejoin="miter" fill-opacity="0" stroke-miterlimit="4"
                      stroke="rgb(153,153,153)" stroke-opacity="1" stroke-width="1"
                      d="M0 0 M0,-13.375 C7.381662499999999,-13.375 13.375,-7.381662499999999 13.375,0 C13.375,7.381662499999999 7.381662499999999,13.375 0,13.375 C-7.381662499999999,13.375 -13.375,7.381662499999999 -13.375,0 C-13.375,-7.381662499999999 -7.381662499999999,-13.375 0,-13.375z"/>
            </g>
        </g>
    </g>
</svg>
